<svg id="Layer_1" data-name="Layer 1" xmlns="http://www.w3.org/2000/svg" viewBox="0 0 323.76871 325.51897"><defs><style>.cls-1{fill:#fff;}</style></defs><title>logo tc</title><polygon class="cls-1" points="23.558 292.107 27.752 292.107 27.752 304.381 30.537 304.381 30.537 292.107 34.751 292.107 34.751 289.608 23.558 289.608 23.558 292.107"/><polygon class="cls-1" points="50.347 297.917 55.707 297.917 55.707 295.459 50.347 295.459 50.347 292.086 56.014 292.086 56.014 289.608 47.582 289.608 47.582 304.381 56.32 304.381 56.32 301.903 50.347 301.903 50.347 297.917"/><path class="cls-1" d="M76.86567,291.861a5.91653,5.91653,0,0,1,2.56741.52349l.52233.25327.7093-2.39795-.35939-.18746a7.66778,7.66778,0,0,0-3.50106-.66953,7.38056,7.38056,0,0,0-7.69357,7.73451c0,4.537,2.86731,7.4686,7.30491,7.4686a9.2799,9.2799,0,0,0,3.86169-.70662l.35692-.17846-.62042-2.37872-.54.26227a6.62674,6.62674,0,0,1-2.69.52336c-3.00951,0-4.8062-1.88854-4.8062-5.05177C71.97759,293.80307,73.80492,291.861,76.86567,291.861Z"/><polygon class="cls-1" points="102.525 295.377 96.841 295.377 96.841 289.608 94.076 289.608 94.076 304.381 96.841 304.381 96.841 297.917 102.525 297.917 102.525 304.381 105.31 304.381 105.31 289.608 102.525 289.608 102.525 295.377"/><path class="cls-1" d="M128.37113,295.86944c0,1.206.01237,2.31229.05825,3.41527-.43715-.79957-.92211-1.61919-1.46161-2.47172l-4.564-7.20511h-2.70685V304.3814h2.66234v-6.38431c0-1.38276-.01484-2.52963-.0485-3.59867.45707.82855.9952,1.73494,1.63458,2.75507l4.52277,7.22791h2.56535V289.60788h-2.66234Z"/><path class="cls-1" d="M151.51819,289.38285c-4.06007,0-6.89578,3.18055-6.89578,7.73451,0,4.40943,2.7515,7.48907,6.69122,7.48907,3.43237,0,6.89579-2.39787,6.89579-7.755a7.96034,7.96034,0,0,0-1.80974-5.34686A6.28131,6.28131,0,0,0,151.51819,289.38285Zm3.82433,7.55042c0,2.60615-1.21405,5.23586-3.92654,5.23586-2.68377,0-3.9062-2.63988-3.9062-5.09264,0-2.61639,1.21419-5.2564,3.92667-5.2564C154.12022,291.82009,155.34252,294.47061,155.34252,296.93327Z"/><polygon class="cls-1" points="174.584 289.608 171.819 289.608 171.819 304.381 180.475 304.381 180.475 301.903 174.584 301.903 174.584 289.608"/><path class="cls-1" d="M199.0353,289.38285c-4.06007,0-6.89565,3.18055-6.89565,7.73451,0,4.40943,2.7515,7.48907,6.69109,7.48907,3.43237,0,6.89579-2.39787,6.89579-7.755a7.95985,7.95985,0,0,0-1.80975-5.34679A6.28091,6.28091,0,0,0,199.0353,289.38285Zm3.82432,7.55042c0,2.60615-1.21405,5.23586-3.92653,5.23586-2.68377,0-3.90607-2.63988-3.90607-5.09264,0-2.61639,1.21405-5.2564,3.92654-5.2564C201.63733,291.82009,202.85962,294.47061,202.85962,296.93327Z"/><path class="cls-1" d="M225.28927,298.57128H228.092v3.2829a6.59676,6.59676,0,0,1-1.88063.21267c-3.02242,0-4.82681-1.89616-4.82681-5.07224a4.68708,4.68708,0,0,1,5.05184-5.05177,6.5976,6.5976,0,0,1,2.84822.55084l.513.228.70752-2.3919-.37684-.18189a8.9678,8.9678,0,0,0-3.65108-.68321c-4.73819,0-7.93687,3.058-7.95954,7.61183a6.96331,6.96331,0,0,0,7.57089,7.44813,13.24123,13.24123,0,0,0,4.40119-.786l.326-.117v-7.46723h-5.5265Z"/><rect class="cls-1" x="244.83444" y="289.60788" width="2.76455" height="14.77352"/><polygon class="cls-1" points="264.768 297.917 270.128 297.917 270.128 295.459 264.768 295.459 264.768 292.086 270.435 292.086 270.435 289.608 262.004 289.608 262.004 304.381 270.742 304.381 270.742 301.903 264.768 301.903 264.768 297.917"/><path class="cls-1" d="M289.15286,295.6148c-1.85975-.71988-2.42673-1.234-2.42673-2.20032,0-.72606.55146-1.57392,2.1058-1.57392a4.97489,4.97489,0,0,1,2.38277.59459l.5145.28067.809-2.39327-.354-.20058a6.66084,6.66084,0,0,0-3.291-.73912c-2.91581,0-4.95224,1.742-4.95224,4.2362,0,1.99466,1.29841,3.4246,3.95717,4.36705,1.90907.73431,2.28262,1.39272,2.28262,2.28186,0,1.16486-.89436,1.8603-2.39225,1.8603a5.83415,5.83415,0,0,1-2.93353-.82719l-.54486-.33528-.73994,2.45544.30361.20237a7.58931,7.58931,0,0,0,3.7919.96236c3.6754,0,5.32056-2.24064,5.32056-4.46122C292.98625,297.4545,291.04819,296.34644,289.15286,295.6148Z"/><path class="cls-1" d="M57.02657,238.92577q.734-.99051.734-4.00089a14.27623,14.27623,0,0,0-.18356-2.09432,14.87383,14.87383,0,0,0-.40274-1.94434H27.36139a4.50762,4.50762,0,0,0-3.16252,1.09248.92679.92679,0,0,0-.10277.36362,11.97255,11.97255,0,0,0,0,2.08083c.1346,2.21354.52735,5.14677.62271,5.49421H35.2933v36.93487a1.38652,1.38652,0,0,0,.18357.69594,1.531,1.531,0,0,0,.76972.588,6.55824,6.55824,0,0,0,1.68929.403,23.73,23.73,0,0,0,3.00957.14728,23.96513,23.96513,0,0,0,2.97585-.14728,6.64432,6.64432,0,0,0,1.72517-.403,1.55083,1.55083,0,0,0,.76972-.588,1.409,1.409,0,0,0,.18357-.69594V239.91736h7.92976A2.90906,2.90906,0,0,0,57.02657,238.92577Z"/><path class="cls-1" d="M81.955,241.86385q-1.1388-.11087-2.16593-.11005a7.35442,7.35442,0,0,0-4.296,1.24677,11.28347,11.28347,0,0,0-3.26691,3.893v-3.08537a1.41188,1.41188,0,0,0-.18343-.69595,1.56008,1.56008,0,0,0-.734-.58858,5.75133,5.75133,0,0,0-1.54174-.40247,18.98008,18.98008,0,0,0-2.68048-.14782q-3.306,0-4.18634.51468a1.51034,1.51034,0,0,0-.87951,1.32014v33.044a1.38651,1.38651,0,0,0,.18356.69594,1.53261,1.53261,0,0,0,.73385.588,5.74885,5.74885,0,0,0,1.54174.403,18.95286,18.95286,0,0,0,2.68047.14728,19.81644,19.81644,0,0,0,2.71649-.14728,5.79829,5.79829,0,0,0,1.57749-.403,1.56067,1.56067,0,0,0,.736-.588,1.4322,1.4322,0,0,0,.18356-.69594V253.94206a10.23163,10.23163,0,0,1,3.56-3.12152,8.66453,8.66453,0,0,1,3.70754-.84377c.29524,0,.5631.013.80776.03615a7.12673,7.12673,0,0,0,.736.03776,2.17886,2.17886,0,0,0,1.90873-.95544c.44076-.63445.34163-6.77821.29308-7.12187Q83.09278,241.97337,81.955,241.86385Z"/><path class="cls-1" d="M102.33007,241.31357a14.21819,14.21819,0,0,0-11.30645,4.918q-4.26127,4.92182-4.26012,14.24589,0,9.17761,4.26012,14.097,4.25823,4.92181,12.70253,4.92019,5.87469,0,8.33478-1.28454,2.45808-1.28426,2.45915-3.19488a10.86894,10.86894,0,0,0-.33111-2.79027,6.14037,6.14037,0,0,0-.91741-2.05655,13.57667,13.57667,0,0,1-2.1302.6625c-.68542.14512-1.55428.28269-2.6067.403a30.441,30.441,0,0,1-3.48621.18343q-4.1852,0-6.05906-2.24-1.8728-2.23674-1.8707-7.0841h19.16446c.0464-.29511.12017-.6857.2193-1.17448.04856-.39275.09711-.88154.14769-1.47012.0464-.58644.07162-1.27159.07162-2.05656Q116.72176,241.3125,102.33007,241.31357Zm-5.21138,15.566a10.25194,10.25194,0,0,1,1.46783-5.43486,4.35893,4.35893,0,0,1,3.81733-1.9082,4.03081,4.03081,0,0,1,3.48823,1.68916q1.21164,1.6889,1.21265,5.6539Z"/><path class="cls-1" d="M148.95574,275.01525a10.86322,10.86322,0,0,0-.33111-2.79027,6.13522,6.13522,0,0,0-.91741-2.05655,13.57492,13.57492,0,0,1-2.13006.6625c-.68543.14512-1.55429.28269-2.6067.403a30.441,30.441,0,0,1-3.48622.18343q-4.1852,0-6.05919-2.24-1.87279-2.23674-1.87057-7.0841h19.16446c.0464-.29511.12018-.6857.21931-1.17448.04855-.39275.097-.88154.14755-1.47012.0464-.58644.07175-1.27159.07175-2.05656q0-16.07962-14.39182-16.07855a14.21774,14.21774,0,0,0-11.30632,4.918q-4.26126,4.92182-4.26012,14.24589,0,9.17761,4.26012,14.097,4.258,4.92181,12.70253,4.92019,5.8745,0,8.33479-1.28454Q148.95479,276.92587,148.95574,275.01525Zm-15.93343-23.57051a4.35887,4.35887,0,0,1,3.8172-1.9082,4.03106,4.03106,0,0,1,3.48837,1.68916q1.21164,1.6889,1.21265,5.6539h-9.986A10.252,10.252,0,0,1,133.02231,251.44474Z"/><path class="cls-1" d="M166.95624,248.48777a5.74083,5.74083,0,0,1,2.59834-2.0981,10.1141,10.1141,0,0,1,3.75812-.62635c.62649,0,1.48051.021,2.56665.06312s1.98466.06312,2.69329.06312q1.75261,0,2.25454-.97217a7.70045,7.70045,0,0,0,.50187-3.28768,14.75352,14.75352,0,0,0-.50187-3.44413q-1.2529,0-3.444-.18774-2.19245-.18936-5.0111-.18775a20.567,20.567,0,0,0-6.888,1.12647,14.20086,14.20086,0,0,0-5.57406,3.6022,14.64417,14.64417,0,0,0-1.57047,1.99613,19.17889,19.17889,0,0,0-2.18778,4.42332,29.2611,29.2611,0,0,0-1.3772,9.58142c0,6.35524,1.19822,11.26194,3.565,14.75949.16779.24816.32572.5082.50551.74126q4.0713,5.29324,12.71305,5.2919,5.38732,0,7.45312-1.03367a3.1875,3.1875,0,0,0,2.0668-2.91219,14.236,14.236,0,0,0-.25087-2.72283,5.13235,5.13235,0,0,0-.68758-1.91089c-.71079.12463-1.44045.25087-2.19332.37549q-.99981.12624-2.25454.25087a26.77075,26.77075,0,0,1-2.69316.12462,9.692,9.692,0,0,1-3.56849-.59452,5.42085,5.42085,0,0,1-2.50554-2.06735,10.783,10.783,0,0,1-1.50371-3.94586,31.86433,31.86433,0,0,1-.49984-6.16858,32.77975,32.77975,0,0,1,.49984-6.26191A10.46009,10.46009,0,0,1,166.95624,248.48777Z"/><path class="cls-1" d="M197.4861,272.63176a.86325.86325,0,0,1-.37536.0615h-.81409a1.34459,1.34459,0,0,1-1.12836-.40731,2.51257,2.51257,0,0,1-.31209-1.46959V235.55555a1.21606,1.21606,0,0,0-.156-.59453,1.336,1.336,0,0,0-.62635-.50227,5.08184,5.08184,0,0,0-1.34766-.34365,16.93661,16.93661,0,0,0-2.31578-.12625,16.23068,16.23068,0,0,0-2.28611.12625,5.00314,5.00314,0,0,0-1.316.34365,1.13145,1.13145,0,0,0-.59479.50227,1.4328,1.4328,0,0,0-.12449.59453v36.199a17.35807,17.35807,0,0,0,.28054,3.35134,5.17363,5.17363,0,0,0,1.06509,2.34734,4.7041,4.7041,0,0,0,2.13006,1.40862,10.93371,10.93371,0,0,0,3.539.47044q4.82106,0,4.82119-3.00552a14.17778,14.17778,0,0,0-.18774-2.66133A7.59774,7.59774,0,0,0,197.4861,272.63176Z"/><path class="cls-1" d="M215.46111,247.07915a15.0216,15.0216,0,0,0-5.82506,1.09463,12.0845,12.0845,0,0,0-4.47956,3.19489,14.965,14.965,0,0,0-2.8809,5.136,23.26772,23.26772,0,0,0,0,13.71449,15.27527,15.27527,0,0,0,2.8809,5.16728,12.20984,12.20984,0,0,0,4.47956,3.258,14.64373,14.64373,0,0,0,5.82506,1.12646,15.05254,15.05254,0,0,0,5.91785-1.12646,12.06067,12.06067,0,0,0,4.47955-3.22672,14.86793,14.86793,0,0,0,2.81765-5.13545,21.87865,21.87865,0,0,0,.99955-6.858q0-7.76387-3.78766-12.05554Q222.09817,247.07969,215.46111,247.07915ZM219.405,270.7527a4.85624,4.85624,0,0,1-7.8603,0q-1.471-2.0053-1.46985-7.20225a21.00866,21.00866,0,0,1,.40691-4.50909,9.71819,9.71819,0,0,1,1.09463-2.944,3.97529,3.97529,0,0,1,1.69145-1.59637,5.08874,5.08874,0,0,1,2.19332-.47044,4.56439,4.56439,0,0,1,3.9143,2.09864q1.468,2.09755,1.47215,7.42128Q220.84756,268.74821,219.405,270.7527Z"/><path class="cls-1" d="M259.457,248.11282a4.98941,4.98941,0,0,0-1.34563-.34582,21.61672,21.61672,0,0,0-4.63561,0,4.98838,4.98838,0,0,0-1.3455.34582,1.30809,1.30809,0,0,0-.62635.49957,1.1995,1.1995,0,0,0-.156.59506v20.41717q-2.31888,2.88171-4.82335,2.8809-3.06844,0-3.06851-3.9464V249.20745a1.22252,1.22252,0,0,0-.156-.59506,1.3295,1.3295,0,0,0-.62648-.49957,4.97333,4.97333,0,0,0-1.316-.34582,16.54558,16.54558,0,0,0-2.2861-.12462,17.27632,17.27632,0,0,0-2.31781.12462,4.98941,4.98941,0,0,0-1.34563.34582,1.3195,1.3195,0,0,0-.62635.49957,1.1995,1.1995,0,0,0-.156.59506v20.668a14.56513,14.56513,0,0,0,.62635,4.57222,7.59,7.59,0,0,0,1.78424,3.03681,6.60618,6.60618,0,0,0,2.78811,1.66,12.57932,12.57932,0,0,0,3.695.50173,10.64427,10.64427,0,0,0,4.82119-1.065,11.58673,11.58673,0,0,0,3.94586-3.4436v2.254a1.30827,1.30827,0,0,0,.65805,1.12646,7.13651,7.13651,0,0,0,3.22469.43861,7.59188,7.59188,0,0,0,3.31951-.43861,1.29824,1.29824,0,0,0,.68961-1.12646V249.20745a1.44043,1.44043,0,0,0-.12651-.59506A1.12641,1.12641,0,0,0,259.457,248.11282Z"/><path class="cls-1" d="M291.70988,234.45875a5.10149,5.10149,0,0,0-1.3772-.34365,17.70284,17.70284,0,0,0-2.34936-.12625,16.27369,16.27369,0,0,0-2.28624.12625,4.49749,4.49749,0,0,0-1.28225.34365,1.1357,1.1357,0,0,0-.56525.50227,1.43268,1.43268,0,0,0-.12435.59453V248.081a8.26086,8.26086,0,0,0-3.82151-1.00184q-7.45332,0-11.08486,4.50909-3.63187,4.5083-3.63174,12.21362a25.26792,25.26792,0,0,0,.87735,7.1073,14.756,14.756,0,0,0,2.3789,4.91587,9.34062,9.34062,0,0,0,3.60221,2.8809,10.97424,10.97424,0,0,0,4.54065.94034,9.52587,9.52587,0,0,0,4.4774-1.065,10.49,10.49,0,0,0,3.539-3.06865v1.87906a1.31061,1.31061,0,0,0,.65589,1.12646,7.14745,7.14745,0,0,0,3.22672.43861,7.59887,7.59887,0,0,0,3.31964-.43861,1.30027,1.30027,0,0,0,.68745-1.12646V235.55555a1.21606,1.21606,0,0,0-.156-.59453A1.32492,1.32492,0,0,0,291.70988,234.45875Zm-7.98465,36.41858a7.76856,7.76856,0,0,1-1.81581,1.37948,4.33788,4.33788,0,0,1-2.06694.49957,6.70158,6.70158,0,0,1-2.19331-.34365,3.69687,3.69687,0,0,1-1.75255-1.34766,7.65873,7.65873,0,0,1-1.18945-2.786,19.79629,19.79629,0,0,1-.43874-4.604,22.17459,22.17459,0,0,1,.407-4.665,7.99129,7.99129,0,0,1,1.18945-2.94456,4.27208,4.27208,0,0,1,1.8475-1.53325,6.18409,6.18409,0,0,1,2.38105-.43861,5.3312,5.3312,0,0,1,2.69114.53141,4.27272,4.27272,0,0,1,.94061.65818Z"/><path class="cls-1" d="M164.56772,60.96132a2.7901,2.7901,0,1,0-3.09509-.00414l.00359-2.69424,3.09509.004Z"/><path class="cls-1" d="M295.47776,127.99121a39.22377,39.22377,0,0,0-3.87517-13.8111,104.48891,104.48891,0,0,0-7.552-12.23252,10.24864,10.24864,0,0,1-1.60971-4.63164,62.6839,62.6839,0,0,0-1.0558-6.69238,9.92589,9.92589,0,0,0-.98715-2.66507c-2.47814-4.57013-11.54127-19.57942-25.77689-23.9476a9.54855,9.54855,0,0,1-4.07059-2.59234,152.77246,152.77246,0,0,1-11.27733-13.34329s-12.68328-15.91887-31.01-11.031a10.03462,10.03462,0,0,1-5.57623-.14523q-3.43339-1.07059-7.00695-1.97027a10.08579,10.08579,0,0,1-2.80121-1.17925q-1.0554-.64406-2.1713-1.2683s-13.13132-7.47743-26.49563-2.293a10.42712,10.42712,0,0,1-3.633.76337c-1.026.01459-2.08943.09069-3.1289.12738-1.60018.05617-3.18545.08742-4.8166.19531a10.036,10.036,0,0,1-3.7649-.46345c-6.46512-2.09863-17.51116-3.80665-27.472,3.73163-2.03952.614-4.82548,1.45294-6.865,2.06685-7.03015-.52333-14.95507.5881-23.82126,4.1892A36.26086,36.26086,0,0,0,75.80415,52.928a10.18152,10.18152,0,0,1-2.88144,2.88791q-1.2303.78907-2.53252,1.66273a10.47974,10.47974,0,0,1-3.05165,1.38871,59.18281,59.18281,0,0,0-6.51373,2.22219S47.79924,66.24812,43.7,78.91067C42.3517,80.712,40.37228,83.35658,39.024,85.15789,32.82354,89.45553,27.23022,95.99474,23.20639,105.669c-.35649.85732-.72065,1.69887-1.05149,2.60638A33.99756,33.99756,0,0,0,21.159,125.9702a9.40419,9.40419,0,0,1,.2074,3.31631c-.78036,6.2187.13461,9.46752,1.84,12.14989,2.55881,4.02405,6.91458,6.76043,10.13318,16.23774,9.193,27.0686,70.77372,40.06341,105.14709,40.36759,3.2948.02917,8.71105,10.29523,11.11059,12.553,1.05508.993,2.18561,1.95482,3.35947,2.89129l.00839.02221s.12155.09537.33743.25922c.05988.047.1173.09536.17587.14316V152.41271H113.08568V132.12337H103.2515L95.002,123.66222H90.06362a5.46512,5.46512,0,1,1,.00032-2.2296h5.87779l8.24951,8.46115h11.124v20.28934h38.16313v-3.79032H129.88169V121.8829l-6.91175-6.91263v-15.349l-5.585-5.585a5.45833,5.45833,0,1,1,1.60154-1.55125l6.213,6.21305v15.34895l6.92171,6.92264-.00909,23.19347H155.708v71.25394h-.10761c.05073.03484.09531.06619.14724.10168v.0577c.55337.38343,1.12579.75031,1.70224,1.115q1.46032.92443,3.018,1.75755c.269.15034.546.29829.82238.44635V202.44975h2.2296v17.56266a32.10983,32.10983,0,0,0,3.5839,1.43182V173.809h2.2296v48.237c.25426.05313.50977.11094.76065.15133a31.95558,31.95558,0,0,0,3.69854.76686c.03756.0061.07365.01437.111.02079v-23.3841h2.2296v23.69764c.89.09646,1.805.15,2.72652.1928l.14974-78.13934h23.4086v-23.9255l12.76967.06532,5.66153-5.66021v-11.85l-4.83065-4.68215V84.83521a5.46764,5.46764,0,1,1,2.22959-.00043V98.35541l4.83065,4.68216v13.71725l-6.97228,6.97185-11.45891-.05835v8.00913h29.72811V119.77087h5.13885a5.46238,5.46238,0,1,1-.00114,2.2296h-2.90811v11.90658H204.64768v13.67457H181.23473l-.14545,75.9571a48.30926,48.30926,0,0,0,16.01271-2.55914l.0245-.00871q1.28264-.39731,2.59441-.86114a36.89769,36.89769,0,0,0,13.34694-8.9652,10.00408,10.00408,0,0,1,10.2273-2.64307l.068.02-.01764-.00055,13.26937,7.14985c4.06755,2.8669,24.12162,11.88349,28.292,2.36307l1.28561-2.8545-5.12328-7.06569c6.76712-1.2204,22.52574-17.791,29.5125-37.50187.36291-1.024.7-2.02428,1.02085-3.01148C296.78025,151.67764,296.63578,140.36656,295.47776,127.99121ZM156.86244,116.30542V140.298h-19.846V116.12426l12.41171-12.26278V92.15576a5.46766,5.46766,0,1,1,2.2296-.00207v12.63969L139.246,117.05616v21.01222h15.38684V114.05143l13.30094.14806V103.0097l-6.24592-6.17233.2106-32.84879a5.46423,5.46423,0,1,1,2.22971.00469l-.20461,31.91917,6.23982,6.16536v14.37568ZM194.54,138.037H168.23077V156.8989h-2.2296V125.65753H186.365V115.25245l-5.94545-6.24287V98.39809l1.484-1.64182a5.46188,5.46188,0,1,1,1.5519,1.60807l-.80632.89249v8.86091l5.94545,6.24288v13.52651H168.23077v7.9203H194.54Z"/><path class="cls-1" d="M152.08448,89.12523a2.79013,2.79013,0,1,0-3.09509-.00425l.00359-2.69424,3.09509.004Z"/><path class="cls-1" d="M185.71858,92.4705l2.15372,2.22284-1.93511,1.87491a2.79011,2.79011,0,1,0-2.15361-2.223Z"/><path class="cls-1" d="M244.89235,123.67506a2.79,2.79,0,1,0-2.36448-4.31309l2.69413-.02809.03233,3.09487-2.69424.0282A2.78911,2.78911,0,0,0,244.89235,123.67506Z"/><path class="cls-1" d="M87.03221,120.99955a2.79017,2.79017,0,1,0-.00016,3.09509H84.33781v-3.09509Z"/><path class="cls-1" d="M117.18948,89.99192a2.7901,2.7901,0,1,0-2.20608,2.17092l-1.88983-1.92042,2.206-2.17092Z"/><path class="cls-1" d="M219.92451,79.49006A2.79006,2.79006,0,1,0,215.582,81.8l.00577-2.69424,3.09509.00664-.00582,2.69435A2.78935,2.78935,0,0,0,219.92451,79.49006Z"/></svg>