<?xml version="1.0" encoding="utf-8"?>
<!-- Generator: Adobe Illustrator 22.0.0, SVG Export Plug-In . SVG Version: 6.00 Build 0)  -->
<svg version="1.1" id="Layer_1" xmlns="http://www.w3.org/2000/svg" xmlns:xlink="http://www.w3.org/1999/xlink" x="0px" y="0px"
	 viewBox="0 0 512 512" style="enable-background:new 0 0 512 512;" xml:space="preserve">
<style type="text/css">
	.st0{fill:#1C1549;}
	.st1{fill:#B11F2D;}
	.st2{fill:#FFFFFF;}
</style>
<g>
	<polygon class="st0" points="48.2,237.4 48.2,190.2 17.6,213 	"/>
	<path class="st0" d="M204.6,73.6h102.7l-42.4-31.6c-5.3-4-12.6-4-17.9,0L204.6,73.6z"/>
	<polygon class="st0" points="353.9,354.6 158,354.6 32.9,472.9 478.9,472.9 	"/>
	<polygon class="st0" points="463.7,237.5 494.4,213.1 463.7,190.2 	"/>
	<path class="st1" d="M78.2,113.7v147.8l79.1,63.1h197.5l78.9-63V113.7c0-5.5-4.5-10-10-10H88.2C82.7,103.7,78.2,108.1,78.2,113.7z"
		/>
	<path d="M246.5,146.9C246.5,146.9,246.5,146.9,246.5,146.9C246.5,146.9,246.5,146.9,246.5,146.9L246.5,146.9z"/>
	<polygon class="st0" points="382.8,340.6 512,462.9 512,237.4 	"/>
	<polygon class="st0" points="129.1,340.5 0,237.4 0,462.7 	"/>
</g>
<polygon class="st2" points="259,149.4 277.6,187.2 319.3,193.3 289.1,222.7 296.3,264.3 259,244.6 221.7,264.3 228.8,222.7 
	198.6,193.3 240.3,187.2 "/>
</svg>
